<?xml version="1.0" encoding="UTF-8" standalone="no"?>
<!-- Created with Inkscape (http://www.inkscape.org/) -->

<svg
   version="1.1"
   id="svg2"
   width="1496"
   height="1496"
   viewBox="0 0 1496 1496"
   sodipodi:docname="2606120_5600.eps"
   xmlns:inkscape="http://www.inkscape.org/namespaces/inkscape"
   xmlns:sodipodi="http://sodipodi.sourceforge.net/DTD/sodipodi-0.dtd"
   xmlns="http://www.w3.org/2000/svg"
   xmlns:svg="http://www.w3.org/2000/svg">
  <defs
     id="defs6" />
  <sodipodi:namedview
     id="namedview4"
     pagecolor="#ffffff"
     bordercolor="#000000"
     borderopacity="0.25"
     inkscape:showpageshadow="2"
     inkscape:pageopacity="0.0"
     inkscape:pagecheckerboard="0"
     inkscape:deskcolor="#d1d1d1" />
  <g
     id="g8"
     inkscape:groupmode="layer"
     inkscape:label="ink_ext_XXXXXX"
     transform="matrix(1.3333333,0,0,-1.3333333,0,1496)">
    <g
       id="g10"
       transform="scale(0.1)">
      <path
         d="M 11220,0 H 0 V 11220 H 11220 V 0"
         style="fill:none;fill-opacity:1;fill-rule:nonzero;stroke:none"
         id="path12" />
      <path
         d="m 9399.65,5609.29 c 0,-900.97 -730.55,-1631.34 -1631.4,-1631.34 -901.09,0 -1631.45,730.37 -1631.45,1631.34 0,900.93 730.36,1631.39 1631.45,1631.39 900.85,0 1631.4,-730.46 1631.4,-1631.39 z M 3451.68,3977.77 c -901.03,0 -1631.45,730.39 -1631.45,1631.4 0,901.03 730.42,1631.42 1631.45,1631.42 900.92,0 1631.4,-730.39 1631.4,-1631.42 0,-901.01 -730.48,-1631.4 -1631.4,-1631.4 z m 2999.46,2974.41 h -164.91 c 0,298.55 -302.91,540.45 -676.26,540.45 -373.66,0 -676.26,-241.9 -676.26,-540.45 h -164.92 c -339.58,332.86 -803.9,538.78 -1317.11,538.78 -1039.2,0 -1881.7,-842.47 -1881.7,-1881.79 0,-1039.29 842.5,-1881.8 1881.7,-1881.8 519.38,0 989.45,210.46 1330.18,550.65 h 1656.39 c 340.49,-340.16 810.79,-550.56 1330,-550.56 1039.21,0 1881.77,842.51 1881.77,1881.83 0,1039.2 -842.56,1881.67 -1881.77,1881.67 -513.03,0 -977.53,-205.92 -1317.11,-538.78"
         style="fill:#616e7d;fill-opacity:1;fill-rule:nonzero;stroke:none"
         id="path14" />
      <path
         d="m 4949.57,5609.17 c 0,-827.26 -670.63,-1497.95 -1497.89,-1497.95 -827.37,0 -1497.93,670.69 -1497.93,1497.95 0,827.28 670.56,1497.94 1497.93,1497.94 827.26,0 1497.89,-670.66 1497.89,-1497.94 z m -3129.34,0 c 0,-901.01 730.42,-1631.4 1631.45,-1631.4 900.92,0 1631.4,730.39 1631.4,1631.4 0,901.03 -730.48,1631.42 -1631.4,1631.42 -901.03,0 -1631.45,-730.39 -1631.45,-1631.42"
         style="fill:#aad4c8;fill-opacity:1;fill-rule:nonzero;stroke:none"
         id="path16" />
      <path
         d="m 4390.96,5609.17 c 0,-518.78 -420.74,-939.19 -939.28,-939.19 -518.66,0 -939.4,420.41 -939.4,939.19 0,518.72 420.74,939.25 939.4,939.25 518.54,0 939.28,-420.53 939.28,-939.25 z m -2437.21,0 c 0,-827.26 670.56,-1497.95 1497.93,-1497.95 827.26,0 1497.89,670.69 1497.89,1497.95 0,827.28 -670.63,1497.94 -1497.89,1497.94 -827.37,0 -1497.93,-670.66 -1497.93,-1497.94"
         style="fill:#82bfab;fill-opacity:1;fill-rule:nonzero;stroke:none"
         id="path18" />
      <path
         d="m 3588.04,6373 c 7.5,-9.99 9.25,-22.94 5.45,-34.65 l -46,-135.42 c -4.91,-14.4 -18.04,-24.39 -33.29,-25.35 -236.46,-14.08 -456.32,-128.34 -603.69,-313.44 -9.93,-12.41 -26.69,-17.31 -41.28,-12.26 l -133.14,45.15 c -19.92,6.81 -30.69,28.59 -23.91,48.69 l 5.27,9.9 c 193.9,269.28 508.07,431.36 839.54,433.29 12.4,0 23.78,-5.87 31.05,-15.91 z m 205.04,-763.83 c 0,-188.62 -152.69,-341.55 -341.4,-341.55 -188.82,0 -341.57,152.93 -341.57,341.55 0,188.64 152.75,341.45 341.57,341.45 188.71,0 341.4,-152.81 341.4,-341.45 z m -1280.8,0 c 0,-518.78 420.74,-939.19 939.4,-939.19 518.54,0 939.28,420.41 939.28,939.19 0,518.72 -420.74,939.25 -939.28,939.25 -518.66,0 -939.4,-420.53 -939.4,-939.25"
         style="fill:#616e7d;fill-opacity:1;fill-rule:nonzero;stroke:none"
         id="path20" />
      <path
         d="m 2717.45,5955.62 -5.27,-9.9 c -6.78,-20.1 3.99,-41.88 23.91,-48.69 l 133.14,-45.15 c 14.59,-5.05 31.35,-0.15 41.28,12.26 147.37,185.1 367.23,299.36 603.69,313.44 15.25,0.96 28.38,10.95 33.29,25.35 l 46,135.42 c 3.8,11.71 2.05,24.66 -5.45,34.65 -7.27,10.04 -18.65,15.91 -31.05,15.91 -331.47,-1.93 -645.64,-164.01 -839.54,-433.29"
         style="fill:#82bfab;fill-opacity:1;fill-rule:nonzero;stroke:none"
         id="path22" />
      <path
         d="m 3110.11,5609.17 c 0,-188.62 152.75,-341.55 341.57,-341.55 188.71,0 341.4,152.93 341.4,341.55 0,188.64 -152.69,341.45 -341.4,341.45 -188.82,0 -341.57,-152.81 -341.57,-341.45"
         style="fill:#aad4c8;fill-opacity:1;fill-rule:nonzero;stroke:none"
         id="path24" />
      <path
         d="m 9265.96,5609.29 c 0,-827.38 -670.51,-1497.94 -1497.71,-1497.94 -827.43,0 -1498.06,670.56 -1498.06,1497.94 0,827.29 670.63,1497.95 1498.06,1497.95 827.2,0 1497.71,-670.66 1497.71,-1497.95 z m -3129.16,0 c 0,-900.97 730.36,-1631.34 1631.45,-1631.34 900.85,0 1631.4,730.37 1631.4,1631.34 0,900.93 -730.55,1631.39 -1631.4,1631.39 -901.09,0 -1631.45,-730.46 -1631.45,-1631.39"
         style="fill:#aad4c8;fill-opacity:1;fill-rule:nonzero;stroke:none"
         id="path26" />
      <path
         d="m 8707.41,5609.29 c 0,-518.78 -420.5,-939.31 -939.16,-939.31 -518.72,0 -939.46,420.53 -939.46,939.31 0,518.69 420.74,939.18 939.46,939.18 518.66,0 939.16,-420.49 939.16,-939.18 z m -2437.22,0 c 0,-827.38 670.63,-1497.94 1498.06,-1497.94 827.2,0 1497.71,670.56 1497.71,1497.94 0,827.29 -670.51,1497.95 -1497.71,1497.95 -827.43,0 -1498.06,-670.66 -1498.06,-1497.95"
         style="fill:#82bfab;fill-opacity:1;fill-rule:nonzero;stroke:none"
         id="path28" />
      <path
         d="m 7904.54,6373.12 c 7.51,-10.02 9.26,-23.06 5.39,-34.77 l -45.94,-135.36 c -4.89,-14.46 -18.03,-24.32 -33.34,-25.41 -236.4,-13.99 -456.51,-128.22 -603.64,-313.44 -9.98,-12.35 -26.68,-17.19 -41.21,-12.11 l -133.27,45.12 c -19.72,6.76 -30.62,28.63 -23.84,48.57 l 5.27,9.96 c 193.9,269.28 507.82,431.36 839.48,433.39 12.4,0 23.9,-6.03 31.1,-15.95 z m 205.35,-763.83 c 0,-188.74 -153.05,-341.64 -341.64,-341.64 -188.58,0 -341.7,152.9 -341.7,341.64 0,188.55 153.12,341.45 341.7,341.45 188.59,0 341.64,-152.9 341.64,-341.45 z m -1281.1,0 c 0,-518.78 420.74,-939.31 939.46,-939.31 518.66,0 939.16,420.53 939.16,939.31 0,518.69 -420.5,939.18 -939.16,939.18 -518.72,0 -939.46,-420.49 -939.46,-939.18"
         style="fill:#616e7d;fill-opacity:1;fill-rule:nonzero;stroke:none"
         id="path30" />
      <path
         d="m 7033.96,5955.68 -5.27,-9.96 c -6.78,-19.94 4.12,-41.81 23.84,-48.57 l 133.27,-45.12 c 14.53,-5.08 31.23,-0.24 41.21,12.11 147.13,185.22 367.24,299.45 603.64,313.44 15.31,1.09 28.45,10.95 33.34,25.41 l 45.94,135.36 c 3.87,11.71 2.12,24.75 -5.39,34.77 -7.2,9.92 -18.7,15.95 -31.1,15.95 -331.66,-2.03 -645.58,-164.11 -839.48,-433.39"
         style="fill:#82bfab;fill-opacity:1;fill-rule:nonzero;stroke:none"
         id="path32" />
      <path
         d="m 7426.55,5609.29 c 0,-188.74 153.12,-341.64 341.7,-341.64 188.59,0 341.64,152.9 341.64,341.64 0,188.55 -153.05,341.45 -341.64,341.45 -188.58,0 -341.7,-152.9 -341.7,-341.45"
         style="fill:#aad4c8;fill-opacity:1;fill-rule:nonzero;stroke:none"
         id="path34" />
    </g>
  </g>
</svg>
